<svg width="645" height="103" viewBox="0 0 645 103" fill="none" xmlns="http://www.w3.org/2000/svg">
<g clip-path="url(#clip0_285_48)">
<path d="M209.208 31.7649H193.928V92.2059H209.208V31.7649Z" fill="#242E3B" style="fill:#242E3B;fill:color(display-p3 0.1412 0.1804 0.2314);fill-opacity:1;"/>
<path d="M166.243 44.0557V60.5785C166.243 70.1479 166.029 76.2066 167.712 77.714C169.744 79.5423 173.421 79.2602 175.755 79.2602L179.772 79.1824V92.0279C178.685 92.0279 174.157 92.0296 173.579 92.0279C170.743 92.0196 168.266 92.0389 165.601 91.6207C162.012 91.0567 158.462 89.7146 155.826 87.2153C149.368 81.0788 150.856 71.3441 150.856 63.3404C150.856 58.0694 150.856 52.7887 150.856 47.5178C150.856 47.333 150.856 44.0557 150.856 44.0557H140.303V31.5104H150.856V12.7217H166.243V31.5104H179.772V44.0557H166.243Z" fill="#242E3B" style="fill:#242E3B;fill:color(display-p3 0.1412 0.1804 0.2314);fill-opacity:1;"/>
<path d="M194.974 24.3916C193.184 22.68 192.299 20.5599 192.299 18.012C192.299 15.464 193.184 13.344 194.974 11.6324C196.754 9.93051 198.991 9.07471 201.685 9.07471C204.379 9.07471 206.616 9.93051 208.396 11.6324C210.176 13.344 211.071 15.4738 211.071 18.012C211.071 20.5599 210.176 22.6897 208.396 24.3916C206.616 26.1032 204.379 26.959 201.685 26.959C198.991 26.959 196.754 26.1032 194.974 24.3916Z" fill="#242E3B" style="fill:#242E3B;fill:color(display-p3 0.1412 0.1804 0.2314);fill-opacity:1;"/>
<path d="M316.2 37.9867C320.703 42.4894 322.95 48.7718 322.95 56.8338V91.9411H307.826V58.8955C307.826 54.2178 306.639 50.6292 304.256 48.1396C301.883 45.6597 298.644 44.4149 294.53 44.4149C290.416 44.4149 287.158 45.6597 284.755 48.1396C282.334 50.6195 281.137 54.208 281.137 58.8955V91.9508H266.013V58.8955C266.013 54.2178 264.827 50.6292 262.444 48.1396C260.071 45.6597 256.822 44.4149 252.718 44.4149C248.545 44.4149 245.248 45.6597 242.836 48.1396C240.424 50.6195 239.218 54.208 239.218 58.8955V91.9508H224.094V31.2375H239.218V39.3385C241.163 36.8197 243.663 34.8358 246.726 33.3965C249.79 31.9572 253.155 31.2375 256.832 31.2375C261.52 31.2375 265.692 32.2295 269.369 34.2134C273.045 36.1973 275.885 39.0176 277.899 42.6936C279.844 39.2315 282.674 36.4599 286.38 34.369C290.085 32.2878 294.112 31.2375 298.43 31.2375C305.773 31.2375 311.697 33.484 316.2 37.9867Z" fill="#242E3B" style="fill:#242E3B;fill:color(display-p3 0.1412 0.1804 0.2314);fill-opacity:1;"/>
<path d="M392.239 66.0531H349.24C349.59 70.3029 351.078 73.6289 353.694 76.0309C356.31 78.433 359.53 79.6389 363.352 79.6389C368.867 79.6389 372.796 77.266 375.14 72.5202H391.169C389.467 78.1899 386.218 82.8385 381.404 86.4756C376.589 90.1225 370.686 91.9411 363.673 91.9411C358.013 91.9411 352.936 90.6865 348.442 88.1775C343.949 85.6684 340.447 82.1091 337.928 77.5091C335.409 72.9092 334.164 67.5993 334.164 61.5796C334.164 55.5014 335.399 50.1527 337.88 45.5527C340.36 40.9528 343.822 37.4129 348.277 34.9427C352.731 32.4629 357.867 31.2278 363.673 31.2278C369.266 31.2278 374.275 32.4337 378.7 34.8358C383.125 37.2378 386.559 40.6611 389 45.0762C391.441 49.5011 392.667 54.5775 392.667 60.3056C392.657 62.4451 392.511 64.3512 392.239 66.0531ZM377.27 56.0752C377.202 52.2533 375.821 49.1996 373.127 46.8948C370.433 44.59 367.145 43.4424 363.255 43.4424C359.578 43.4424 356.476 44.5608 353.966 46.7878C351.457 49.0148 349.911 52.1171 349.347 56.0752H377.27Z" fill="#242E3B" style="fill:#242E3B;fill:color(display-p3 0.1412 0.1804 0.2314);fill-opacity:1;"/>
<path d="M485.375 88.1979C480.862 85.6986 477.322 82.149 474.744 77.5685C472.167 72.988 470.883 67.6976 470.883 61.707C470.883 55.7164 472.206 50.4357 474.851 45.8455C477.497 41.265 481.105 37.7251 485.696 35.216C490.277 32.7167 495.383 31.4622 501.024 31.4622C506.665 31.4622 511.772 32.7167 516.353 35.216C520.934 37.7251 524.552 41.265 527.197 45.8455C529.843 50.4259 531.165 55.7164 531.165 61.707C531.165 67.6976 529.804 72.988 527.1 77.5685C524.386 82.149 520.72 85.6889 516.1 88.1979C511.48 90.6972 506.325 91.9518 500.606 91.9518C494.955 91.9518 489.878 90.707 485.375 88.1979ZM508.163 77.1017C510.517 75.7985 512.404 73.8438 513.814 71.2375C515.224 68.6312 515.925 65.4608 515.925 61.7167C515.925 56.154 514.466 51.8652 511.538 48.8699C508.611 45.8746 505.031 44.377 500.81 44.377C496.589 44.377 493.039 45.8746 490.18 48.8699C487.32 51.8652 485.9 56.154 485.9 61.7167C485.9 67.2891 487.291 71.5681 490.073 74.5634C492.854 77.5587 496.365 79.0564 500.596 79.0564C503.271 79.0564 505.8 78.4048 508.163 77.1017Z" fill="#242E3B" style="fill:#242E3B;fill:color(display-p3 0.1412 0.1804 0.2314);fill-opacity:1;"/>
<path d="M552.828 88.1979C548.315 85.6986 544.775 82.149 542.197 77.5685C539.62 72.988 538.336 67.6976 538.336 61.707C538.336 55.7164 539.659 50.4357 542.304 45.8455C544.95 41.265 548.558 37.7251 553.149 35.216C557.73 32.7167 562.836 31.4622 568.477 31.4622C574.118 31.4622 579.225 32.7167 583.806 35.216C588.387 37.7251 592.005 41.265 594.65 45.8455C597.296 50.4259 598.618 55.7164 598.618 61.707C598.618 67.6976 597.257 72.988 594.553 77.5685C591.839 82.149 588.173 85.6889 583.553 88.1979C578.933 90.6972 573.778 91.9518 568.059 91.9518C562.408 91.9518 557.341 90.707 552.828 88.1979ZM575.616 77.1017C577.97 75.7985 579.857 73.8438 581.267 71.2375C582.677 68.6312 583.378 65.4608 583.378 61.7167C583.378 56.154 581.919 51.8652 578.991 48.8699C576.064 45.8746 572.484 44.377 568.263 44.377C564.032 44.377 560.492 45.8746 557.633 48.8699C554.773 51.8652 553.353 56.154 553.353 61.7167C553.353 67.2891 554.744 71.5681 557.526 74.5634C560.307 77.5587 563.818 79.0564 568.049 79.0564C570.734 79.0564 573.253 78.4048 575.616 77.1017Z" fill="#242E3B" style="fill:#242E3B;fill:color(display-p3 0.1412 0.1804 0.2314);fill-opacity:1;"/>
<path d="M633.28 33.2993C634.603 33.0075 635.955 32.8422 637.297 32.7547C638.581 32.6672 639.874 32.6574 641.158 32.6769C641.8 32.6866 642.442 32.7061 643.094 32.7255C643.424 32.7352 644.387 32.7255 644.387 32.7255C644.387 32.7255 644.387 33.591 644.387 33.8147C644.387 34.3107 644.387 34.8067 644.387 35.2929C644.387 37.8603 644.387 40.4277 644.387 42.9951C644.387 43.7245 644.387 44.4344 644.387 45.1638C644.387 45.1638 639.816 45.193 639.398 45.193C637.589 45.193 635.76 45.6987 635.041 45.9224C632.628 46.6906 630.382 48.2369 628.65 50.1041C626.365 52.5743 625.947 55.5599 625.947 58.7691C625.947 59.0122 625.937 61.5796 625.937 61.8228L625.947 91.9217H610.56V31.4807H625.947C625.947 31.4807 625.947 37.2087 625.947 37.3254C625.947 37.1018 626.423 36.7614 626.569 36.6252C626.841 36.3627 627.133 36.1195 627.435 35.8959C628.047 35.4193 628.709 35.0109 629.409 34.6608C630.625 34.0287 631.938 33.591 633.28 33.2993Z" fill="#242E3B" style="fill:#242E3B;fill:color(display-p3 0.1412 0.1804 0.2314);fill-opacity:1;"/>
<path d="M404.367 47.7707C404.96 46.6134 405.66 45.5048 406.477 44.4642C409.638 40.3797 414.093 37.3746 418.946 35.6047C427.233 32.5899 437.552 33.4749 443.543 37.1801C443.524 30.2559 443.553 19.7724 443.543 12.8481H458.92C458.93 12.8481 458.94 12.8579 458.94 12.8676V91.932C458.94 91.9417 458.93 91.9514 458.92 91.9514H444.72C444.701 91.9514 443.553 91.932 443.553 91.9028C443.553 89.1993 443.553 89.0728 443.543 86.3401C438.972 93.1282 422.039 93.8964 413.149 87.7599C409.512 85.2509 406.516 81.7985 404.425 77.9085C401.478 72.4236 400.447 66.0245 401.099 59.8589C401.536 55.6674 402.441 51.4856 404.367 47.7707ZM442.775 54.1406C441.433 51.6996 439.624 49.8227 437.348 48.5195C435.072 47.2164 432.631 46.5648 430.014 46.5648C427.408 46.5648 424.996 47.2066 422.788 48.4709C420.58 49.7449 418.791 51.6023 417.419 54.0433C416.048 56.4843 415.357 59.3824 415.357 62.7278C415.357 66.0732 416.038 69.0004 417.419 71.5094C418.791 74.0185 420.6 75.944 422.837 77.2861C425.083 78.6282 427.466 79.2895 430.014 79.2895C432.621 79.2895 435.072 78.6379 437.348 77.3347C439.624 76.0316 441.433 74.1547 442.775 71.7137C444.108 69.2727 444.779 66.3357 444.779 62.9223C444.779 59.5185 444.108 56.5815 442.775 54.1406Z" fill="#242E3B" style="fill:#242E3B;fill:color(display-p3 0.1412 0.1804 0.2314);fill-opacity:1;"/>
<path d="M70.3772 50.9298C73.0952 50.9298 75.2986 48.7267 75.2986 46.009C75.2986 43.2913 73.0952 41.0881 70.3772 41.0881C67.6592 41.0881 65.4558 43.2913 65.4558 46.009C65.4558 48.7267 67.6592 50.9298 70.3772 50.9298Z" fill="#242E3B" style="fill:#242E3B;fill:color(display-p3 0.1412 0.1804 0.2314);fill-opacity:1;"/>
<path d="M82.5605 72.09L82.5508 90.1882C82.5508 91.9971 80.6737 94.1658 78.6798 94.5353C66.425 96.811 29.6603 99.6896 29.6603 99.6896C27.9874 99.9133 27.9874 102.014 29.67 102.014H92.7243C95.5935 102.014 97.9278 100.263 97.9278 98.1141V64.2322L82.5605 72.09Z" fill="#242E3B" style="fill:#242E3B;fill:color(display-p3 0.1412 0.1804 0.2314);fill-opacity:1;"/>
<path d="M29.8378 2.2951C29.8378 2.2951 66.2815 5.30014 78.2737 7.42019C80.8122 7.86754 82.5532 9.54024 82.5532 11.4658V21.8132V26.5882V50.9202L97.9302 42.7609V32.9873V31.548V3.89973C97.9302 1.7505 95.6056 0 92.7267 0H29.8864C28.0384 0.223675 28.1357 1.99363 29.8378 2.2951Z" fill="#242E3B" style="fill:#242E3B;fill:color(display-p3 0.1412 0.1804 0.2314);fill-opacity:1;"/>
<path d="M25.3269 56.0547C25.8132 55.5976 25.2297 54.8196 24.6558 55.1697C15.3382 60.8199 -5.58259 75.4269 1.40075 82.672C4.23104 85.609 10.6503 85.7646 14.1614 85.6965C21.3003 85.5798 29.6842 84.335 36.5703 82.4484C45.635 79.9588 54.6511 77.333 63.4921 74.0654C71.9052 70.9534 80.0751 67.3357 88.1283 63.329C96.5414 59.1375 104.867 54.2944 112.482 48.6442C112.755 48.4497 113.017 48.2455 113.28 48.0412C116.363 45.6975 119.291 43.1009 121.888 40.1737C124.3 37.4507 127.451 33.8719 125.798 29.8555C124.455 26.5879 118.902 25.7126 116.198 25.5376C114.797 25.45 113.222 25.4111 111.821 25.5667C111.578 25.5959 111.169 25.6737 111.179 25.8001C111.189 26.0627 111.772 26.0433 112.696 26.4225C114.33 27.0838 115.974 28.2995 116.052 30.1667C116.11 31.5573 115.488 33.0064 114.778 34.1734C114.009 35.4376 113.212 36.3421 112.307 37.3437C110.586 39.2596 108.242 41.2921 105.869 43.0134C95.277 50.6865 86.6111 54.6445 85.5412 55.1502C71.7399 61.6271 54.8067 67.501 46.4034 69.3585C40.3635 70.6908 34.1777 71.7411 27.9335 71.5466C25.3853 71.4688 20.2986 70.5255 19.6858 67.8025C18.5673 62.9497 22.3313 58.8652 25.3269 56.0547Z" fill="#242E3B" style="fill:#242E3B;fill:color(display-p3 0.1412 0.1804 0.2314);fill-opacity:1;"/>
</g>
<defs>
<clipPath id="clip0_285_48">
<rect width="644.387" height="102.014" fill="white" style="fill:white;fill-opacity:1;"/>
</clipPath>
</defs>
</svg>
